<svg xmlns:xlink="http://www.w3.org/1999/xlink"  xmlns="http://www.w3.org/2000/svg" viewBox="0 0 31 31" class="styles_icon__GEUwO styles_icon__PEjpm" width="30" height="30"><path d="M10.502 12.906h9.375c.47 0 .938-.41.938-.937v-.938c0-.469-.469-.937-.938-.937h-9.375c-.527 0-.937.469-.937.937v.938c0 .527.41.937.937.937Zm-.937 4.688c0 .527.41.937.937.937h9.375c.47 0 .938-.41.938-.937v-.938c0-.468-.469-.937-.938-.937h-9.375c-.527 0-.937.469-.937.937v.938Zm5.625 7.148c-.996 0-1.934-.293-2.754-.937L.19 14.957v12.48a2.777 2.777 0 0 0 2.812 2.813h24.375a2.813 2.813 0 0 0 2.813-2.813v-12.48l-12.305 8.848a4.313 4.313 0 0 1-2.695.937ZM29.077 9.801c-.528-.352-.996-.762-1.7-1.29V5.876c0-1.523-1.289-2.813-2.812-2.813h-4.57l-.528-.351C18.471 2.008 16.537.25 15.19.25c-1.406 0-3.34 1.758-4.336 2.46l-.527.353H5.815a2.813 2.813 0 0 0-2.813 2.812v2.637c-.761.527-1.23.937-1.757 1.289A2.897 2.897 0 0 0 .19 12.027v.645l5.625 4.043V5.875h18.75v10.84l5.625-4.043v-.645c0-.879-.41-1.64-1.113-2.226Z"></path></svg>